<?xml version="1.0" standalone="no"?>
<!DOCTYPE svg PUBLIC "-//W3C//DTD SVG 20010904//EN"
 "http://www.w3.org/TR/2001/REC-SVG-20010904/DTD/svg10.dtd">
<svg version="1.0" xmlns="http://www.w3.org/2000/svg"
 width="16.000000pt" height="16.000000pt" viewBox="0 0 16.000000 16.000000"
 preserveAspectRatio="xMidYMid meet">

<g transform="translate(0.000000,16.000000) scale(0.100000,-0.100000)"
fill="#000000" stroke="none">
<path d="M23 105 l-28 -25 30 -25 c17 -14 33 -25 38 -25 14 0 7 29 -10 39 -17
10 -17 12 0 25 18 14 23 36 8 36 -6 0 -23 -11 -38 -25z"/>
<path d="M90 119 c0 -7 8 -18 18 -25 16 -13 16 -15 0 -25 -18 -10 -25 -39 -10
-39 4 0 21 11 37 25 l30 25 -28 25 c-30 27 -47 32 -47 14z"/>
</g>
</svg>
