<svg width="1149" height="88" viewBox="0 0 1149 88" fill="none" xmlns="http://www.w3.org/2000/svg">
<path d="M1147.45 69.2334C1119.19 74.9411 1085.33 65.4715 1061.81 49.1591C1061.75 49.1206 1057.91 46.4955 1057.43 46.5689C1050.66 47.6179 1034.99 65.318 1031.37 67.7764C978.125 103.916 910.023 77.6385 852.483 66.886C835.796 63.7677 826.077 68.387 810.554 74.5758C800.013 78.7781 773.538 94.11 763.606 81.537C756.196 72.1577 752.614 57.2248 740.779 52.0731C730.968 47.8023 718.067 50.4803 708.078 51.9113C692.496 54.1432 677.166 57.7245 661.372 58.3059C641.765 59.0277 631.041 51.095 614.667 42.036C586.353 26.3707 555.714 19.5101 523.685 16.5384C489.313 13.3492 454.486 15.3723 420.238 10.9532C400.836 8.44977 384.563 0.737129 364.386 2.37308C328.365 5.29369 293.864 18.1485 257.944 22.3664C244.8 23.9098 232.449 22.7494 219.495 23.5806C205.841 24.4568 191.511 32.075 179.347 37.1793C150.693 49.2027 121.958 63.9828 90.1455 63.8911C60.9869 63.807 31.29 58.6687 2.2395 56.1204" stroke="black" stroke-width="3" stroke-linecap="round"/>
</svg>
